<svg preserveAspectRatio="none" width="100%" height="100%" overflow="visible" style="display: block;" viewBox="0 0 12 12" fill="none" xmlns="http://www.w3.org/2000/svg">
<g id="Image">
<path id="Vector" d="M8.60029 0C10.6339 0 12 1.42687 12 3.55003V8.44997C12 10.5731 10.6339 12 8.59969 12H3.39971C1.36614 12 0 10.5731 0 8.44997V3.55003C0 1.42687 1.36614 0 3.39971 0H8.60029ZM9.26196 6.33003C8.61879 5.92879 8.12224 6.49226 7.98829 6.67245C7.85918 6.84644 7.74816 7.03839 7.63111 7.23034C7.34513 7.70403 7.01751 8.25016 6.45036 8.5678C5.62619 9.02415 5.00052 8.60372 4.55043 8.29783C4.38149 8.1839 4.21738 8.07616 4.05387 8.00433C3.65084 7.83034 3.28823 8.02848 2.75004 8.71207C2.46768 9.06935 2.18772 9.42353 1.90415 9.77647C1.73461 9.98762 1.77503 10.3133 2.0037 10.4545C2.36873 10.6793 2.814 10.8 3.31719 10.8H8.37383C8.65921 10.8 8.9452 10.761 9.21791 10.6718C9.83212 10.4712 10.3196 10.0118 10.5742 9.40495C10.789 8.89474 10.8934 8.27554 10.6925 7.76037C10.6255 7.58947 10.5254 7.43034 10.3848 7.2904C10.0161 6.92446 9.67163 6.58266 9.26196 6.33003ZM3.89931 2.4C3.07213 2.4 2.4 3.07304 2.4 3.9C2.4 4.72696 3.07213 5.4 3.89931 5.4C4.7259 5.4 5.39863 4.72696 5.39863 3.9C5.39863 3.07304 4.7259 2.4 3.89931 2.4Z" fill="var(--fill-0, #4E7C3E)"/>
</g>
</svg>
